<mxfile host="app.diagrams.net" agent="Mozilla/5.0 (Windows NT 10.0; Win64; x64; rv:130.0) Gecko/20100101 Firefox/130.0" version="24.7.14">
  <diagram name="Page-1" id="ynrKZBvM-TqcdCyV6zVD">
    <mxGraphModel dx="461" dy="666" grid="1" gridSize="10" guides="1" tooltips="1" connect="1" arrows="1" fold="1" page="1" pageScale="1" pageWidth="850" pageHeight="1100" math="0" shadow="0">
      <root>
        <mxCell id="0" />
        <mxCell id="1" parent="0" />
        <mxCell id="bNUFX3YIlNKZmqHoZOQ5-70" value="" style="rounded=0;whiteSpace=wrap;html=1;shadow=0;" vertex="1" parent="1">
          <mxGeometry x="930" y="25" width="670" height="1050" as="geometry" />
        </mxCell>
        <mxCell id="bNUFX3YIlNKZmqHoZOQ5-1" value="Administrateur" style="shape=umlActor;verticalLabelPosition=bottom;verticalAlign=top;html=1;outlineConnect=0;" vertex="1" parent="1">
          <mxGeometry x="1670" y="620" width="30" height="60" as="geometry" />
        </mxCell>
        <mxCell id="bNUFX3YIlNKZmqHoZOQ5-5" value="visiteur" style="shape=umlActor;verticalLabelPosition=bottom;verticalAlign=top;html=1;outlineConnect=0;" vertex="1" parent="1">
          <mxGeometry x="880" y="50" width="30" height="60" as="geometry" />
        </mxCell>
        <mxCell id="bNUFX3YIlNKZmqHoZOQ5-14" value="Veterinaire" style="shape=umlActor;verticalLabelPosition=bottom;verticalAlign=top;html=1;outlineConnect=0;" vertex="1" parent="1">
          <mxGeometry x="1640" y="40" width="30" height="60" as="geometry" />
        </mxCell>
        <mxCell id="bNUFX3YIlNKZmqHoZOQ5-23" value="Employer" style="shape=umlActor;verticalLabelPosition=bottom;verticalAlign=top;html=1;outlineConnect=0;" vertex="1" parent="1">
          <mxGeometry x="880" y="410" width="30" height="60" as="geometry" />
        </mxCell>
        <mxCell id="bNUFX3YIlNKZmqHoZOQ5-29" value="répondre avis" style="ellipse;whiteSpace=wrap;html=1;" vertex="1" parent="1">
          <mxGeometry x="1175" y="270" width="100" height="60" as="geometry" />
        </mxCell>
        <mxCell id="bNUFX3YIlNKZmqHoZOQ5-30" value="Valider avis visteur" style="ellipse;whiteSpace=wrap;html=1;" vertex="1" parent="1">
          <mxGeometry x="1090" y="310" width="100" height="70" as="geometry" />
        </mxCell>
        <mxCell id="bNUFX3YIlNKZmqHoZOQ5-48" value="modifier services zoo" style="ellipse;whiteSpace=wrap;html=1;" vertex="1" parent="1">
          <mxGeometry x="1090" y="390" width="100" height="60" as="geometry" />
        </mxCell>
        <mxCell id="bNUFX3YIlNKZmqHoZOQ5-49" value="donner alimentation" style="ellipse;whiteSpace=wrap;html=1;" vertex="1" parent="1">
          <mxGeometry x="1090" y="230" width="100" height="60" as="geometry" />
        </mxCell>
        <mxCell id="bNUFX3YIlNKZmqHoZOQ5-54" value="donner alimentation animaux" style="ellipse;whiteSpace=wrap;html=1;" vertex="1" parent="1">
          <mxGeometry x="1090" y="450" width="100" height="60" as="geometry" />
        </mxCell>
        <mxCell id="bNUFX3YIlNKZmqHoZOQ5-57" value="mettre commentaire sur les habitats" style="ellipse;whiteSpace=wrap;html=1;" vertex="1" parent="1">
          <mxGeometry x="1430" y="20" width="100" height="60" as="geometry" />
        </mxCell>
        <mxCell id="bNUFX3YIlNKZmqHoZOQ5-58" value="créer compte" style="ellipse;whiteSpace=wrap;html=1;" vertex="1" parent="1">
          <mxGeometry x="1410" y="410" width="100" height="60" as="geometry" />
        </mxCell>
        <mxCell id="bNUFX3YIlNKZmqHoZOQ5-59" value="remplir compte rendu animaux" style="ellipse;whiteSpace=wrap;html=1;" vertex="1" parent="1">
          <mxGeometry x="1430" y="80" width="100" height="60" as="geometry" />
        </mxCell>
        <mxCell id="bNUFX3YIlNKZmqHoZOQ5-63" value="laisser un avis" style="ellipse;whiteSpace=wrap;html=1;" vertex="1" parent="1">
          <mxGeometry x="1100" y="40" width="100" height="60" as="geometry" />
        </mxCell>
        <mxCell id="bNUFX3YIlNKZmqHoZOQ5-64" value="créer services" style="ellipse;whiteSpace=wrap;html=1;" vertex="1" parent="1">
          <mxGeometry x="1410" y="480" width="100" height="60" as="geometry" />
        </mxCell>
        <mxCell id="bNUFX3YIlNKZmqHoZOQ5-76" value="ajouterhoraires" style="ellipse;whiteSpace=wrap;html=1;" vertex="1" parent="1">
          <mxGeometry x="1410" y="550" width="100" height="60" as="geometry" />
        </mxCell>
        <mxCell id="bNUFX3YIlNKZmqHoZOQ5-81" value="" style="endArrow=none;html=1;rounded=0;exitX=0;exitY=0.3333333333333333;exitDx=0;exitDy=0;exitPerimeter=0;" edge="1" parent="1" source="bNUFX3YIlNKZmqHoZOQ5-1" target="bNUFX3YIlNKZmqHoZOQ5-64">
          <mxGeometry width="50" height="50" relative="1" as="geometry">
            <mxPoint x="1630" y="240" as="sourcePoint" />
            <mxPoint x="1350.0000000000002" y="400" as="targetPoint" />
          </mxGeometry>
        </mxCell>
        <mxCell id="bNUFX3YIlNKZmqHoZOQ5-83" value="" style="endArrow=none;html=1;rounded=0;entryX=0;entryY=0.3333333333333333;entryDx=0;entryDy=0;entryPerimeter=0;exitX=0.922;exitY=0.355;exitDx=0;exitDy=0;exitPerimeter=0;" edge="1" parent="1" source="bNUFX3YIlNKZmqHoZOQ5-76" target="bNUFX3YIlNKZmqHoZOQ5-1">
          <mxGeometry width="50" height="50" relative="1" as="geometry">
            <mxPoint x="1550" y="335" as="sourcePoint" />
            <mxPoint x="1630" y="260" as="targetPoint" />
          </mxGeometry>
        </mxCell>
        <mxCell id="bNUFX3YIlNKZmqHoZOQ5-84" value="" style="endArrow=none;html=1;rounded=0;entryX=0;entryY=0.3333333333333333;entryDx=0;entryDy=0;entryPerimeter=0;exitX=1;exitY=0.5;exitDx=0;exitDy=0;" edge="1" parent="1" source="bNUFX3YIlNKZmqHoZOQ5-58" target="bNUFX3YIlNKZmqHoZOQ5-1">
          <mxGeometry width="50" height="50" relative="1" as="geometry">
            <mxPoint x="1510" y="330" as="sourcePoint" />
            <mxPoint x="1648" y="249" as="targetPoint" />
          </mxGeometry>
        </mxCell>
        <mxCell id="bNUFX3YIlNKZmqHoZOQ5-85" value="" style="endArrow=none;html=1;rounded=0;exitX=1;exitY=0.3333333333333333;exitDx=0;exitDy=0;exitPerimeter=0;entryX=0;entryY=0.5;entryDx=0;entryDy=0;" edge="1" parent="1" source="bNUFX3YIlNKZmqHoZOQ5-23" target="bNUFX3YIlNKZmqHoZOQ5-30">
          <mxGeometry width="50" height="50" relative="1" as="geometry">
            <mxPoint x="1190" y="490" as="sourcePoint" />
            <mxPoint x="1240" y="440" as="targetPoint" />
          </mxGeometry>
        </mxCell>
        <mxCell id="bNUFX3YIlNKZmqHoZOQ5-88" value="" style="endArrow=none;html=1;rounded=0;exitX=1;exitY=0.3333333333333333;exitDx=0;exitDy=0;exitPerimeter=0;" edge="1" parent="1" source="bNUFX3YIlNKZmqHoZOQ5-23" target="bNUFX3YIlNKZmqHoZOQ5-48">
          <mxGeometry width="50" height="50" relative="1" as="geometry">
            <mxPoint x="920" y="440" as="sourcePoint" />
            <mxPoint x="1100" y="355" as="targetPoint" />
          </mxGeometry>
        </mxCell>
        <mxCell id="bNUFX3YIlNKZmqHoZOQ5-89" value="" style="endArrow=none;html=1;rounded=0;exitX=1;exitY=0.3333333333333333;exitDx=0;exitDy=0;exitPerimeter=0;" edge="1" parent="1" source="bNUFX3YIlNKZmqHoZOQ5-23">
          <mxGeometry width="50" height="50" relative="1" as="geometry">
            <mxPoint x="919" y="280" as="sourcePoint" />
            <mxPoint x="1090" y="264" as="targetPoint" />
          </mxGeometry>
        </mxCell>
        <mxCell id="bNUFX3YIlNKZmqHoZOQ5-90" value="" style="endArrow=none;html=1;rounded=0;exitX=1;exitY=0.3333333333333333;exitDx=0;exitDy=0;exitPerimeter=0;entryX=0;entryY=0.5;entryDx=0;entryDy=0;" edge="1" parent="1" source="bNUFX3YIlNKZmqHoZOQ5-23" target="bNUFX3YIlNKZmqHoZOQ5-54">
          <mxGeometry width="50" height="50" relative="1" as="geometry">
            <mxPoint x="920" y="440" as="sourcePoint" />
            <mxPoint x="1100" y="432" as="targetPoint" />
          </mxGeometry>
        </mxCell>
        <mxCell id="bNUFX3YIlNKZmqHoZOQ5-91" value="" style="endArrow=none;html=1;rounded=0;exitX=1;exitY=0.3333333333333333;exitDx=0;exitDy=0;exitPerimeter=0;entryX=0;entryY=0.5;entryDx=0;entryDy=0;" edge="1" parent="1" source="bNUFX3YIlNKZmqHoZOQ5-23" target="bNUFX3YIlNKZmqHoZOQ5-29">
          <mxGeometry width="50" height="50" relative="1" as="geometry">
            <mxPoint x="920" y="440" as="sourcePoint" />
            <mxPoint x="1100" y="490" as="targetPoint" />
            <Array as="points">
              <mxPoint x="1050" y="300" />
            </Array>
          </mxGeometry>
        </mxCell>
        <mxCell id="bNUFX3YIlNKZmqHoZOQ5-92" value="" style="endArrow=none;html=1;rounded=0;exitX=1;exitY=0.3333333333333333;exitDx=0;exitDy=0;exitPerimeter=0;entryX=0;entryY=0.5;entryDx=0;entryDy=0;" edge="1" parent="1" source="bNUFX3YIlNKZmqHoZOQ5-5" target="bNUFX3YIlNKZmqHoZOQ5-63">
          <mxGeometry width="50" height="50" relative="1" as="geometry">
            <mxPoint x="910" y="210" as="sourcePoint" />
            <mxPoint x="1205" y="80" as="targetPoint" />
            <Array as="points" />
          </mxGeometry>
        </mxCell>
        <mxCell id="bNUFX3YIlNKZmqHoZOQ5-93" value="ajouter, modfier&amp;nbsp; ou supprimer animaux zoo" style="ellipse;whiteSpace=wrap;html=1;" vertex="1" parent="1">
          <mxGeometry x="1410" y="620" width="100" height="60" as="geometry" />
        </mxCell>
        <mxCell id="bNUFX3YIlNKZmqHoZOQ5-94" value="créer,habitat" style="ellipse;whiteSpace=wrap;html=1;" vertex="1" parent="1">
          <mxGeometry x="1420" y="740" width="100" height="60" as="geometry" />
        </mxCell>
        <mxCell id="bNUFX3YIlNKZmqHoZOQ5-96" value="" style="endArrow=none;html=1;rounded=0;entryX=0;entryY=0.3333333333333333;entryDx=0;entryDy=0;entryPerimeter=0;exitX=1;exitY=0.5;exitDx=0;exitDy=0;" edge="1" parent="1" source="bNUFX3YIlNKZmqHoZOQ5-93" target="bNUFX3YIlNKZmqHoZOQ5-1">
          <mxGeometry width="50" height="50" relative="1" as="geometry">
            <mxPoint x="1512" y="301" as="sourcePoint" />
            <mxPoint x="1650" y="250" as="targetPoint" />
          </mxGeometry>
        </mxCell>
        <mxCell id="bNUFX3YIlNKZmqHoZOQ5-97" value="" style="endArrow=none;html=1;rounded=0;entryX=0;entryY=0.3333333333333333;entryDx=0;entryDy=0;entryPerimeter=0;exitX=1;exitY=0.5;exitDx=0;exitDy=0;strokeColor=default;" edge="1" parent="1" source="bNUFX3YIlNKZmqHoZOQ5-94" target="bNUFX3YIlNKZmqHoZOQ5-1">
          <mxGeometry width="50" height="50" relative="1" as="geometry">
            <mxPoint x="1520" y="380" as="sourcePoint" />
            <mxPoint x="1650" y="250" as="targetPoint" />
          </mxGeometry>
        </mxCell>
        <mxCell id="bNUFX3YIlNKZmqHoZOQ5-100" value="trier et filtrer les comptes rendu animaux " style="ellipse;whiteSpace=wrap;html=1;" vertex="1" parent="1">
          <mxGeometry x="1410" y="830" width="100" height="60" as="geometry" />
        </mxCell>
        <mxCell id="bNUFX3YIlNKZmqHoZOQ5-101" value="Accès aux nombre de clique sur animaux zoo" style="ellipse;whiteSpace=wrap;html=1;" vertex="1" parent="1">
          <mxGeometry x="1410" y="910" width="100" height="60" as="geometry" />
        </mxCell>
        <mxCell id="bNUFX3YIlNKZmqHoZOQ5-102" value="" style="endArrow=none;html=1;rounded=0;entryX=0.954;entryY=0.374;entryDx=0;entryDy=0;entryPerimeter=0;exitX=0;exitY=0.3333333333333333;exitDx=0;exitDy=0;exitPerimeter=0;" edge="1" parent="1" source="bNUFX3YIlNKZmqHoZOQ5-1" target="bNUFX3YIlNKZmqHoZOQ5-101">
          <mxGeometry width="50" height="50" relative="1" as="geometry">
            <mxPoint x="1640" y="290" as="sourcePoint" />
            <mxPoint x="1510" y="620" as="targetPoint" />
            <Array as="points" />
          </mxGeometry>
        </mxCell>
        <mxCell id="bNUFX3YIlNKZmqHoZOQ5-103" value="" style="endArrow=none;html=1;rounded=0;entryX=1;entryY=0.5;entryDx=0;entryDy=0;" edge="1" parent="1" target="bNUFX3YIlNKZmqHoZOQ5-57">
          <mxGeometry width="50" height="50" relative="1" as="geometry">
            <mxPoint x="1640" y="60" as="sourcePoint" />
            <mxPoint x="1030" y="650" as="targetPoint" />
          </mxGeometry>
        </mxCell>
        <mxCell id="bNUFX3YIlNKZmqHoZOQ5-104" value="" style="endArrow=none;html=1;rounded=0;exitX=0;exitY=0.3333333333333333;exitDx=0;exitDy=0;exitPerimeter=0;" edge="1" parent="1" source="bNUFX3YIlNKZmqHoZOQ5-14" target="bNUFX3YIlNKZmqHoZOQ5-59">
          <mxGeometry width="50" height="50" relative="1" as="geometry">
            <mxPoint x="920" y="660" as="sourcePoint" />
            <mxPoint x="1100" y="620" as="targetPoint" />
          </mxGeometry>
        </mxCell>
        <mxCell id="bNUFX3YIlNKZmqHoZOQ5-105" value="connexion" style="ellipse;whiteSpace=wrap;html=1;" vertex="1" parent="1">
          <mxGeometry x="1090" y="160" width="100" height="60" as="geometry" />
        </mxCell>
        <mxCell id="bNUFX3YIlNKZmqHoZOQ5-106" value="" style="endArrow=none;html=1;rounded=0;exitX=1;exitY=0.3333333333333333;exitDx=0;exitDy=0;exitPerimeter=0;" edge="1" parent="1" source="bNUFX3YIlNKZmqHoZOQ5-23">
          <mxGeometry width="50" height="50" relative="1" as="geometry">
            <mxPoint x="890" y="320" as="sourcePoint" />
            <mxPoint x="1090" y="190" as="targetPoint" />
            <Array as="points" />
          </mxGeometry>
        </mxCell>
        <mxCell id="bNUFX3YIlNKZmqHoZOQ5-107" value="" style="endArrow=none;html=1;rounded=0;entryX=0;entryY=0.3333333333333333;entryDx=0;entryDy=0;entryPerimeter=0;" edge="1" parent="1" target="bNUFX3YIlNKZmqHoZOQ5-1">
          <mxGeometry width="50" height="50" relative="1" as="geometry">
            <mxPoint x="1190" y="200" as="sourcePoint" />
            <mxPoint x="1620" y="305" as="targetPoint" />
            <Array as="points">
              <mxPoint x="1480" y="200" />
            </Array>
          </mxGeometry>
        </mxCell>
        <mxCell id="bNUFX3YIlNKZmqHoZOQ5-109" value="" style="endArrow=none;html=1;rounded=0;exitX=0;exitY=0.3333333333333333;exitDx=0;exitDy=0;exitPerimeter=0;entryX=1;entryY=0.5;entryDx=0;entryDy=0;" edge="1" parent="1" source="bNUFX3YIlNKZmqHoZOQ5-14" target="bNUFX3YIlNKZmqHoZOQ5-105">
          <mxGeometry width="50" height="50" relative="1" as="geometry">
            <mxPoint x="1640" y="60" as="sourcePoint" />
            <mxPoint x="1524" y="156" as="targetPoint" />
            <Array as="points">
              <mxPoint x="1540" y="190" />
            </Array>
          </mxGeometry>
        </mxCell>
        <mxCell id="bNUFX3YIlNKZmqHoZOQ5-110" value="verifier mot de passe" style="ellipse;whiteSpace=wrap;html=1;" vertex="1" parent="1">
          <mxGeometry x="1240" y="40" width="100" height="60" as="geometry" />
        </mxCell>
        <mxCell id="bNUFX3YIlNKZmqHoZOQ5-111" value="afficher erreur de connexion " style="ellipse;whiteSpace=wrap;html=1;" vertex="1" parent="1">
          <mxGeometry x="1240" y="110" width="100" height="60" as="geometry" />
        </mxCell>
        <mxCell id="bNUFX3YIlNKZmqHoZOQ5-113" value="&amp;lt;&amp;lt;include&amp;gt;&amp;gt;" style="html=1;verticalAlign=bottom;labelBackgroundColor=none;endArrow=open;endFill=0;dashed=1;rounded=0;entryX=0;entryY=0.5;entryDx=0;entryDy=0;" edge="1" parent="1" target="bNUFX3YIlNKZmqHoZOQ5-110">
          <mxGeometry width="160" relative="1" as="geometry">
            <mxPoint x="1145" y="160" as="sourcePoint" />
            <mxPoint x="1305" y="160" as="targetPoint" />
          </mxGeometry>
        </mxCell>
        <mxCell id="bNUFX3YIlNKZmqHoZOQ5-124" value="déconnexion" style="ellipse;whiteSpace=wrap;html=1;" vertex="1" parent="1">
          <mxGeometry x="1170" y="1000" width="100" height="60" as="geometry" />
        </mxCell>
        <mxCell id="bNUFX3YIlNKZmqHoZOQ5-125" value="" style="endArrow=none;html=1;rounded=0;exitX=0;exitY=0.3333333333333333;exitDx=0;exitDy=0;exitPerimeter=0;" edge="1" parent="1" source="bNUFX3YIlNKZmqHoZOQ5-1" target="bNUFX3YIlNKZmqHoZOQ5-124">
          <mxGeometry width="50" height="50" relative="1" as="geometry">
            <mxPoint x="1680" y="650" as="sourcePoint" />
            <mxPoint x="1515" y="942" as="targetPoint" />
            <Array as="points">
              <mxPoint x="1600" y="1030" />
            </Array>
          </mxGeometry>
        </mxCell>
        <mxCell id="bNUFX3YIlNKZmqHoZOQ5-126" value="&amp;lt;&amp;lt;include&amp;gt;&amp;gt;" style="html=1;verticalAlign=bottom;labelBackgroundColor=none;endArrow=open;endFill=0;dashed=1;rounded=0;exitX=0.4;exitY=0;exitDx=0;exitDy=0;exitPerimeter=0;entryX=1;entryY=1;entryDx=0;entryDy=0;" edge="1" parent="1" source="bNUFX3YIlNKZmqHoZOQ5-124" target="bNUFX3YIlNKZmqHoZOQ5-105">
          <mxGeometry width="160" relative="1" as="geometry">
            <mxPoint x="1220" y="710" as="sourcePoint" />
            <mxPoint x="1380" y="710" as="targetPoint" />
            <Array as="points">
              <mxPoint x="940" y="1000" />
              <mxPoint x="940" y="600" />
            </Array>
          </mxGeometry>
        </mxCell>
        <mxCell id="bNUFX3YIlNKZmqHoZOQ5-128" value="&amp;lt;&amp;lt;extension&amp;gt;&amp;gt;" style="html=1;verticalAlign=bottom;labelBackgroundColor=none;endArrow=open;endFill=0;dashed=1;rounded=0;entryX=0.944;entryY=0.207;entryDx=0;entryDy=0;entryPerimeter=0;" edge="1" parent="1" source="bNUFX3YIlNKZmqHoZOQ5-111" target="bNUFX3YIlNKZmqHoZOQ5-105">
          <mxGeometry width="160" relative="1" as="geometry">
            <mxPoint x="1220" y="280" as="sourcePoint" />
            <mxPoint x="1380" y="280" as="targetPoint" />
          </mxGeometry>
        </mxCell>
        <mxCell id="bNUFX3YIlNKZmqHoZOQ5-130" value="" style="endArrow=none;html=1;rounded=0;exitX=0;exitY=0.3333333333333333;exitDx=0;exitDy=0;exitPerimeter=0;" edge="1" parent="1" source="bNUFX3YIlNKZmqHoZOQ5-14">
          <mxGeometry width="50" height="50" relative="1" as="geometry">
            <mxPoint x="1650" y="70" as="sourcePoint" />
            <mxPoint x="1190" y="180" as="targetPoint" />
            <Array as="points">
              <mxPoint x="1540" y="190" />
            </Array>
          </mxGeometry>
        </mxCell>
        <mxCell id="bNUFX3YIlNKZmqHoZOQ5-132" value="filtrer" style="ellipse;whiteSpace=wrap;html=1;" vertex="1" parent="1">
          <mxGeometry x="1275" y="870" width="70" height="40" as="geometry" />
        </mxCell>
        <mxCell id="bNUFX3YIlNKZmqHoZOQ5-141" value="&lt;div&gt;supprimer&lt;/div&gt;&lt;div&gt;horaires&lt;br&gt;&lt;/div&gt;" style="ellipse;whiteSpace=wrap;html=1;" vertex="1" parent="1">
          <mxGeometry x="1270" y="540" width="70" height="40" as="geometry" />
        </mxCell>
        <mxCell id="bNUFX3YIlNKZmqHoZOQ5-156" value="&lt;div&gt;modifier&lt;/div&gt;&lt;div&gt;horaires&lt;br&gt;&lt;/div&gt;" style="ellipse;whiteSpace=wrap;html=1;" vertex="1" parent="1">
          <mxGeometry x="1260" y="580" width="70" height="40" as="geometry" />
        </mxCell>
        <mxCell id="bNUFX3YIlNKZmqHoZOQ5-157" value="&amp;lt;&amp;lt;extend&amp;gt;&amp;gt;" style="html=1;verticalAlign=bottom;labelBackgroundColor=none;endArrow=open;endFill=0;dashed=1;rounded=0;exitX=1;exitY=0.5;exitDx=0;exitDy=0;entryX=0;entryY=0.5;entryDx=0;entryDy=0;" edge="1" parent="1" source="bNUFX3YIlNKZmqHoZOQ5-141" target="bNUFX3YIlNKZmqHoZOQ5-76">
          <mxGeometry width="160" relative="1" as="geometry">
            <mxPoint x="1260" y="590" as="sourcePoint" />
            <mxPoint x="1420" y="590" as="targetPoint" />
          </mxGeometry>
        </mxCell>
        <mxCell id="bNUFX3YIlNKZmqHoZOQ5-158" value="&amp;lt;&amp;lt;extend&amp;gt;&amp;gt;" style="html=1;verticalAlign=bottom;labelBackgroundColor=none;endArrow=open;endFill=0;dashed=1;rounded=0;exitX=1;exitY=0.5;exitDx=0;exitDy=0;entryX=0.049;entryY=0.619;entryDx=0;entryDy=0;entryPerimeter=0;" edge="1" parent="1" source="bNUFX3YIlNKZmqHoZOQ5-156" target="bNUFX3YIlNKZmqHoZOQ5-76">
          <mxGeometry width="160" relative="1" as="geometry">
            <mxPoint x="1340" y="570" as="sourcePoint" />
            <mxPoint x="1410" y="590" as="targetPoint" />
          </mxGeometry>
        </mxCell>
        <mxCell id="bNUFX3YIlNKZmqHoZOQ5-160" value="&lt;div&gt;supprimer&lt;/div&gt;&lt;div&gt;servcices&lt;br&gt;&lt;/div&gt;" style="ellipse;whiteSpace=wrap;html=1;" vertex="1" parent="1">
          <mxGeometry x="1230" y="450" width="70" height="40" as="geometry" />
        </mxCell>
        <mxCell id="bNUFX3YIlNKZmqHoZOQ5-161" value="&lt;div&gt;modifier&lt;/div&gt;&lt;div&gt;services&lt;br&gt;&lt;/div&gt;" style="ellipse;whiteSpace=wrap;html=1;" vertex="1" parent="1">
          <mxGeometry x="1230" y="500" width="70" height="40" as="geometry" />
        </mxCell>
        <mxCell id="bNUFX3YIlNKZmqHoZOQ5-163" value="&amp;lt;&amp;lt;extend&amp;gt;&amp;gt;" style="html=1;verticalAlign=bottom;labelBackgroundColor=none;endArrow=open;endFill=0;dashed=1;rounded=0;entryX=0.081;entryY=0.347;entryDx=0;entryDy=0;entryPerimeter=0;exitX=1;exitY=0.5;exitDx=0;exitDy=0;" edge="1" parent="1" source="bNUFX3YIlNKZmqHoZOQ5-160" target="bNUFX3YIlNKZmqHoZOQ5-64">
          <mxGeometry width="160" relative="1" as="geometry">
            <mxPoint x="1320" y="480" as="sourcePoint" />
            <mxPoint x="1480" y="480" as="targetPoint" />
          </mxGeometry>
        </mxCell>
        <mxCell id="bNUFX3YIlNKZmqHoZOQ5-164" value="&amp;lt;&amp;lt;extend&amp;gt;&amp;gt;" style="html=1;verticalAlign=bottom;labelBackgroundColor=none;endArrow=open;endFill=0;dashed=1;rounded=0;entryX=0;entryY=0.5;entryDx=0;entryDy=0;exitX=1;exitY=0.5;exitDx=0;exitDy=0;" edge="1" parent="1" source="bNUFX3YIlNKZmqHoZOQ5-161" target="bNUFX3YIlNKZmqHoZOQ5-64">
          <mxGeometry width="160" relative="1" as="geometry">
            <mxPoint x="1330" y="490" as="sourcePoint" />
            <mxPoint x="1428" y="511" as="targetPoint" />
          </mxGeometry>
        </mxCell>
        <mxCell id="bNUFX3YIlNKZmqHoZOQ5-183" value="&lt;div&gt;par image&lt;/div&gt;&lt;div&gt;par habitat affecté&lt;/div&gt;&lt;div&gt;par prénom&lt;/div&gt;&lt;div&gt;par race &lt;/div&gt;" style="shape=note;whiteSpace=wrap;html=1;backgroundOutline=1;darkOpacity=0.05;" vertex="1" parent="1">
          <mxGeometry x="1154.25" y="630" width="115.75" height="60" as="geometry" />
        </mxCell>
        <mxCell id="bNUFX3YIlNKZmqHoZOQ5-184" value="" style="endArrow=none;dashed=1;html=1;dashPattern=1 3;strokeWidth=2;rounded=0;entryX=0;entryY=0.5;entryDx=0;entryDy=0;exitX=0.914;exitY=0.333;exitDx=0;exitDy=0;exitPerimeter=0;" edge="1" parent="1">
          <mxGeometry width="50" height="50" relative="1" as="geometry">
            <mxPoint x="1260.0455" y="659.4099999999999" as="sourcePoint" />
            <mxPoint x="1410" y="659.4300000000001" as="targetPoint" />
          </mxGeometry>
        </mxCell>
        <mxCell id="bNUFX3YIlNKZmqHoZOQ5-185" value="&lt;div&gt;modifier animaux&lt;br&gt;&lt;/div&gt;" style="ellipse;whiteSpace=wrap;html=1;" vertex="1" parent="1">
          <mxGeometry x="1310" y="670" width="70" height="40" as="geometry" />
        </mxCell>
        <mxCell id="bNUFX3YIlNKZmqHoZOQ5-186" value="&lt;div&gt;supprimer&lt;/div&gt;&lt;div&gt;animaux&lt;br&gt;&lt;/div&gt;" style="ellipse;whiteSpace=wrap;html=1;" vertex="1" parent="1">
          <mxGeometry x="1310" y="610" width="70" height="40" as="geometry" />
        </mxCell>
        <mxCell id="bNUFX3YIlNKZmqHoZOQ5-187" value="&amp;lt;&amp;lt;extend&amp;gt;&amp;gt;" style="html=1;verticalAlign=bottom;labelBackgroundColor=none;endArrow=open;endFill=0;dashed=1;rounded=0;exitX=1;exitY=0.5;exitDx=0;exitDy=0;entryX=0;entryY=0;entryDx=0;entryDy=0;" edge="1" parent="1" source="bNUFX3YIlNKZmqHoZOQ5-186" target="bNUFX3YIlNKZmqHoZOQ5-93">
          <mxGeometry width="160" relative="1" as="geometry">
            <mxPoint x="1340" y="610" as="sourcePoint" />
            <mxPoint x="1425" y="597" as="targetPoint" />
          </mxGeometry>
        </mxCell>
        <mxCell id="bNUFX3YIlNKZmqHoZOQ5-188" value="&amp;lt;&amp;lt;extend&amp;gt;&amp;gt;" style="html=1;verticalAlign=bottom;labelBackgroundColor=none;endArrow=open;endFill=0;dashed=1;rounded=0;exitX=1;exitY=1;exitDx=0;exitDy=0;entryX=0.049;entryY=0.619;entryDx=0;entryDy=0;entryPerimeter=0;" edge="1" parent="1" source="bNUFX3YIlNKZmqHoZOQ5-185">
          <mxGeometry width="160" relative="1" as="geometry">
            <mxPoint x="1345" y="686.5" as="sourcePoint" />
            <mxPoint x="1430" y="673.5" as="targetPoint" />
          </mxGeometry>
        </mxCell>
        <mxCell id="bNUFX3YIlNKZmqHoZOQ5-189" value="&lt;div&gt;supprimer&lt;/div&gt;&lt;div&gt;habitat&lt;br&gt;&lt;/div&gt;" style="ellipse;whiteSpace=wrap;html=1;" vertex="1" parent="1">
          <mxGeometry x="1320" y="720" width="70" height="40" as="geometry" />
        </mxCell>
        <mxCell id="bNUFX3YIlNKZmqHoZOQ5-190" value="&lt;div&gt;modifier habitat&lt;br&gt;&lt;/div&gt;" style="ellipse;whiteSpace=wrap;html=1;" vertex="1" parent="1">
          <mxGeometry x="1330" y="780" width="70" height="40" as="geometry" />
        </mxCell>
        <mxCell id="bNUFX3YIlNKZmqHoZOQ5-191" value="&amp;lt;&amp;lt;extend&amp;gt;&amp;gt;" style="html=1;verticalAlign=bottom;labelBackgroundColor=none;endArrow=open;endFill=0;dashed=1;rounded=0;exitX=1;exitY=0.5;exitDx=0;exitDy=0;entryX=0.5;entryY=0;entryDx=0;entryDy=0;" edge="1" parent="1" source="bNUFX3YIlNKZmqHoZOQ5-189" target="bNUFX3YIlNKZmqHoZOQ5-94">
          <mxGeometry width="160" relative="1" as="geometry">
            <mxPoint x="1420" y="730.5" as="sourcePoint" />
            <mxPoint x="1481" y="700" as="targetPoint" />
          </mxGeometry>
        </mxCell>
        <mxCell id="bNUFX3YIlNKZmqHoZOQ5-192" value="&amp;lt;&amp;lt;extend&amp;gt;&amp;gt;" style="html=1;verticalAlign=bottom;labelBackgroundColor=none;endArrow=open;endFill=0;dashed=1;rounded=0;entryX=0.049;entryY=0.619;entryDx=0;entryDy=0;entryPerimeter=0;exitX=0.692;exitY=0.938;exitDx=0;exitDy=0;exitPerimeter=0;" edge="1" parent="1" source="bNUFX3YIlNKZmqHoZOQ5-190">
          <mxGeometry width="160" relative="1" as="geometry">
            <mxPoint x="1410" y="830" as="sourcePoint" />
            <mxPoint x="1471" y="799.5" as="targetPoint" />
            <Array as="points">
              <mxPoint x="1470" y="820" />
            </Array>
          </mxGeometry>
        </mxCell>
        <mxCell id="bNUFX3YIlNKZmqHoZOQ5-193" value="&lt;div&gt;par image&lt;/div&gt;&lt;div&gt;par description d&#39;habitat&lt;br&gt;&lt;/div&gt;&lt;div&gt;par nom&lt;br&gt;&lt;/div&gt;&lt;div&gt;par liste d&#39;animaux&amp;nbsp; &lt;/div&gt;" style="shape=note;whiteSpace=wrap;html=1;backgroundOutline=1;darkOpacity=0.05;" vertex="1" parent="1">
          <mxGeometry x="1154.25" y="740" width="115.75" height="70" as="geometry" />
        </mxCell>
        <mxCell id="bNUFX3YIlNKZmqHoZOQ5-194" value="" style="endArrow=none;dashed=1;html=1;dashPattern=1 3;strokeWidth=2;rounded=0;entryX=0;entryY=0.5;entryDx=0;entryDy=0;exitX=0.914;exitY=0.333;exitDx=0;exitDy=0;exitPerimeter=0;" edge="1" parent="1">
          <mxGeometry width="50" height="50" relative="1" as="geometry">
            <mxPoint x="1270.0455" y="769.4099999999999" as="sourcePoint" />
            <mxPoint x="1420" y="769.4300000000001" as="targetPoint" />
          </mxGeometry>
        </mxCell>
        <mxCell id="bNUFX3YIlNKZmqHoZOQ5-195" value="&lt;div&gt;par image&lt;/div&gt;&lt;div&gt;par description d&#39;habitat&lt;br&gt;&lt;/div&gt;&lt;div&gt;par nom&lt;br&gt;&lt;/div&gt;&lt;div&gt;par liste d&#39;animaux&amp;nbsp; &lt;/div&gt;" style="shape=note;whiteSpace=wrap;html=1;backgroundOutline=1;darkOpacity=0.05;" vertex="1" parent="1">
          <mxGeometry x="1154.25" y="830" width="115.75" height="70" as="geometry" />
        </mxCell>
        <mxCell id="bNUFX3YIlNKZmqHoZOQ5-196" value="&amp;lt;&amp;lt;extend&amp;gt;&amp;gt;" style="html=1;verticalAlign=bottom;labelBackgroundColor=none;endArrow=open;endFill=0;dashed=1;rounded=0;exitX=1;exitY=0.5;exitDx=0;exitDy=0;entryX=0.5;entryY=0;entryDx=0;entryDy=0;" edge="1" parent="1">
          <mxGeometry width="160" relative="1" as="geometry">
            <mxPoint x="1345" y="880.41" as="sourcePoint" />
            <mxPoint x="1425" y="880.41" as="targetPoint" />
            <Array as="points">
              <mxPoint x="1400" y="880" />
            </Array>
          </mxGeometry>
        </mxCell>
        <mxCell id="bNUFX3YIlNKZmqHoZOQ5-197" value="" style="endArrow=none;dashed=1;html=1;dashPattern=1 3;strokeWidth=2;rounded=0;entryX=0;entryY=0.5;entryDx=0;entryDy=0;exitX=0.914;exitY=0.333;exitDx=0;exitDy=0;exitPerimeter=0;" edge="1" parent="1" target="bNUFX3YIlNKZmqHoZOQ5-100">
          <mxGeometry width="50" height="50" relative="1" as="geometry">
            <mxPoint x="1250.0455" y="859.4099999999999" as="sourcePoint" />
            <mxPoint x="1400" y="859.4300000000001" as="targetPoint" />
          </mxGeometry>
        </mxCell>
      </root>
    </mxGraphModel>
  </diagram>
</mxfile>
